<svg width="2517" height="718" viewBox="0 0 2517 718" fill="none" xmlns="http://www.w3.org/2000/svg">
<path d="M398.524 150.355C376.134 201.921 353.744 253.486 335.764 292.941C317.784 332.397 304.892 358.179 296.555 376.55C283.8 404.655 279.295 418.976 274.175 433.615C260.79 488.861 255.301 505.988 252.905 516.258C251.867 520.421 251.189 522.457 250.49 526.61" stroke="black" stroke-width="10" stroke-linecap="round"/>
<path d="M332.731 323.062C341.592 335.357 355.985 349.729 376.072 371.533C415.322 414.138 445.114 440.236 447.509 444.338C452.23 452.421 468.306 474.346 484.487 493.323C487.592 496.427 490.306 499.141 493.061 501.896C495.816 504.652 498.53 507.366 503.382 512.218" stroke="black" stroke-width="10" stroke-linecap="round"/>
<path d="M626.744 154.467C626.744 159.895 626.744 165.323 628.78 182.368C630.815 199.412 634.886 227.909 636.983 286.012C639.081 344.116 639.081 430.963 638.741 478.756C637.724 532.655 637.025 541.66 636.685 546.79C636.346 549.206 635.668 551.241 634.969 553.339" stroke="black" stroke-width="10" stroke-linecap="round"/>
<path d="M795.339 162.691C803.481 162.691 819.889 162.691 843.142 162.013C863.774 161.411 879.575 158.579 909.861 157.222C934.054 156.138 976.106 153.151 1001.51 152.771C1026.91 152.391 1034.37 154.426 1038.9 156.492C1045.42 159.471 1026.5 189.831 989.563 237.058C973.247 257.92 958.054 269.359 943.929 282.774C899.107 325.346 892.713 335.357 879.349 348.701C863.443 364.582 858.419 374.422 842.69 392.896C839.215 397.059 837.858 399.095 836.481 401.161C835.103 403.227 833.746 405.263 832.348 407.36" stroke="black" stroke-width="10" stroke-linecap="round"/>
<path d="M957.767 277.829C961.838 285.971 967.327 294.237 979.252 306.85C1001.35 328.285 1026.19 353.101 1043.66 371.934C1050.27 379.233 1052.3 381.947 1058.51 388.856" stroke="black" stroke-width="10" stroke-linecap="round"/>
<path d="M1183.93 148.299C1183.93 155.084 1183.25 162.65 1182.22 192.226C1181.34 217.718 1181.87 264.547 1181.54 291.718C1181 334.71 1178.46 348.352 1177.42 374.36C1177.08 380.59 1176.41 384.661 1176.06 390.49C1175.71 396.319 1175.71 403.782 1175.71 411.472" stroke="black" stroke-width="10" stroke-linecap="round"/>
<path d="M1188.04 290.166H1253.84" stroke="black" stroke-width="10" stroke-linecap="round"/>
<path d="M868.423 456.051C869.803 455.706 871.182 455.361 879.65 453.977C888.117 452.593 903.632 450.179 935.414 448.764C967.196 447.348 1014.78 447.003 1053.25 448.377C1091.72 449.751 1119.65 452.854 1134.73 454.625C1151.2 456.56 1155.7 458.13 1160.58 460.214C1166.54 462.764 1170.68 473.77 1174.19 484.557C1176.97 493.123 1173.85 503.024 1172.81 512.051C1171.61 522.393 1172.11 530.209 1171.24 538.687C1168.63 569.21 1167.23 576.868 1166.36 581.925C1166.18 583.492 1166.18 585.561 1166.18 587.692" stroke="black" stroke-width="10" stroke-linecap="round"/>
<path d="M1404.43 188C1404.78 188 1405.12 188 1433.74 189.896C1462.37 191.793 1519.25 195.585 1549.25 197.884C1579.24 200.182 1580.62 200.872 1584.13 201.582" stroke="black" stroke-width="10" stroke-linecap="round"/>
<path d="M1371 285.164C1379.27 284.474 1387.55 283.785 1431.46 285.498C1475.37 287.212 1554.67 291.349 1596.56 293.653C1638.44 295.956 1640.51 296.301 1644.73 297.701" stroke="black" stroke-width="10" stroke-linecap="round"/>
<path d="M1454.58 360.387C1444.57 363.146 1421.55 371.504 1412.48 381.413C1402.52 392.291 1396.12 406.608 1392.25 421.961C1385.86 447.327 1396.05 460.623 1399.03 467.978C1401.28 473.559 1404.77 479.115 1416.23 490.592C1419.57 493.934 1425.97 499.645 1436.91 507.47C1445.62 513.689 1462.47 518.116 1481.62 522.818C1493.38 525.707 1508.78 525.461 1531.73 524.254C1550.85 523.249 1564.58 515.045 1576.38 507.93C1589.98 499.737 1601.15 489.291 1609.84 479.047C1618.78 468.502 1623.12 457.593 1625.39 450.118C1629.69 435.882 1624.9 417.202 1618.99 407.961C1611.83 396.78 1600.93 384.522 1591.47 374.863C1584.65 367.893 1577.2 364.232 1572.48 361.615C1566.76 358.434 1555.29 359.698 1538.82 358.653C1513.05 358.298 1495.35 358.987 1488.59 360.032C1483.91 360.387 1476.67 360.387 1469.21 361.432" stroke="black" stroke-width="10" stroke-linecap="round"/>
<path d="M1745.03 198.448C1745.03 203.275 1745.03 208.101 1744.34 239.204C1743.65 270.307 1742.27 327.54 1741.39 357.54C1740.47 388.586 1739.8 391.02 1739.63 394.316C1739.53 396.238 1739.11 398.647 1738.94 415.405C1738.76 432.163 1738.76 463.193 1738.59 479.695C1737.37 500.021 1736.67 512.485 1736.67 525.033C1736.67 528.616 1736.67 526.548 1736.67 524.416" stroke="black" stroke-width="10" stroke-linecap="round"/>
<path d="M1746.07 352.029C1746.76 352.719 1761.25 353.074 1788.02 353.763C1800.64 354.453 1811.33 355.832 1817.7 356.543C1824.07 357.253 1825.79 357.253 1827.57 357.253" stroke="black" stroke-width="10" stroke-linecap="round"/>
<path d="M1874 236.216C1874 235.527 1876.07 234.827 1907.13 232.925C1936.11 231.151 1991.98 228.61 2022.3 227.534C2052.62 226.458 2055.73 227.148 2066.29 228.365C2076.85 229.582 2094.78 231.306 2106.09 232.711C2117.39 234.116 2121.53 235.151 2123.83 236.201C2126.9 237.598 2126.49 250.383 2123.04 277.615C2120.96 293.979 2114.07 314.846 2110.88 326.887C2107.68 338.928 2107.34 341.341 2104.58 354.307C2101.81 367.272 2096.64 390.717 2093.8 403.312C2090.73 416.965 2088.54 425.936 2085.41 439.675C2081.18 458.256 2076 472.648 2074.6 477.543C2072.52 483.796 2069.73 492.164 2066.43 500.334C2065.55 502.612 2064.86 504.681 2062.06 508.901" stroke="black" stroke-width="10" stroke-linecap="round"/>
<path d="M2275.29 209C2275.29 213.682 2275.29 218.364 2275.29 269.726C2275.29 321.087 2275.29 418.986 2274 521.141" stroke="black" stroke-width="10" stroke-linecap="round"/>
<path d="M33.6561 91.6669C33.0389 93.5183 32.4218 95.3698 30.2524 113.295C28.083 131.221 24.3801 165.164 22.4725 188.822C19.575 224.756 19.9478 239.391 19.0127 244.665C17.5522 252.902 18.0776 260.58 16.834 284.378C15.7203 305.687 15.5903 345.822 14.9638 367.413C14.1002 397.176 11.2141 420.666 8.10965 451.561C6.76936 464.899 6.85664 473.779 5.92156 492.639C3.61237 539.216 6.22078 573.514 7.46444 579.116C9.53383 588.436 11.8126 603.381 13.7014 623.962C15.2702 641.055 18.0589 652.043 21.1727 663.581C24.1347 674.558 65.1122 688.735 92.2015 697.899C107.634 703.12 123.948 706.315 156.965 708.811C163.921 709.337 166.999 710.055 190.497 710.373C213.996 710.691 257.814 710.691 284.09 710.074C317.813 709.282 327.253 706.333 376.653 704.781C424.188 703.288 517.392 702.612 569.72 701.359C622.047 700.106 630.687 698.871 642.852 698.236C655.018 697.6 670.447 697.6 687.961 698.834C705.475 700.068 724.607 702.537 782.292 703.809C839.977 705.08 935.636 705.08 1080.26 706.623C1224.89 708.166 1415.59 711.252 1522.17 711.916C1628.74 712.58 1645.4 710.728 1655.22 709.466C1665.04 708.204 1667.51 707.586 1690.99 705.108C1714.48 702.63 1758.92 698.31 1783.04 695.776C1807.17 693.242 1809.64 692.625 1829.42 692.307C1849.21 691.989 1886.24 691.989 1908.09 692.606C1929.95 693.224 1935.5 694.458 1988.66 696.945C2041.82 699.432 2142.41 703.135 2209.05 703.191C2275.68 703.248 2305.31 699.545 2323.03 697.328C2345.7 694.495 2370.54 694.477 2401.39 695.103C2418.19 695.444 2430.49 691.989 2444.56 682.994C2466.46 668.983 2494.15 662.085 2496.33 656.503C2499.76 647.731 2498.53 637.792 2500.07 621.381C2503.31 586.914 2507.88 561.732 2508.19 554.28C2509.27 528.12 2510.37 503.757 2511.3 477.482C2512.13 454.304 2511.62 411.091 2511.31 386.984C2510.86 351.625 2508.52 336.733 2507.26 320.509C2505.76 301.025 2501.67 276.252 2500.09 263.46C2498.21 248.217 2497.3 235.707 2496.35 223.252C2495.92 217.581 2494.79 194.114 2494.48 161.087C2494.35 146.546 2492.92 125.517 2492.61 96.5387C2492.38 74.4178 2479.23 54.9369 2473 44.9502C2464.85 31.8718 2447.48 33.7105 2436.27 30.5967C2431.28 29.2077 2427.54 28.7172 2357.13 27.4735C2286.72 26.2299 2149.71 24.3784 2074.5 22.8075C1999.29 21.2366 1990.03 20.0022 1983.41 19.3664C1965 17.5976 1948.78 16.8604 1903.24 15.3081C1870.17 14.1811 1808.44 14.9902 1659.7 13.1387C1510.95 11.2873 1277.05 7.58436 1154.09 5.98537C1031.13 4.38638 1026.19 5.00354 933.85 5.93862C841.51 6.8737 661.919 8.10801 567.55 9.05244C473.182 9.99687 469.479 10.614 465.103 10.932C455.808 11.6072 446.999 11.867 433.983 12.8021C409.918 14.5309 384.106 14.3544 362.347 16.2245C339.429 18.1943 324.186 17.4775 317.35 18.4126C309.349 19.5072 295.572 19.9648 264.266 22.4522C242.25 24.2013 207.656 24.9395 188.926 25.8839C158.874 27.3993 134.121 31.8217 121.292 34.9261C101.44 39.7299 90.168 41.1941 73.7131 46.4297C62.7131 49.9297 52.7131 52.9297 45.7131 57.4297C40.0711 61.0567 38.9718 64.4297 37.2131 67.9297C36.2687 69.8092 35.3396 74.0502 34.7131 75.9297C34.0866 77.8092 33.6561 80.9297 32.2131 90.4297" stroke="black" stroke-width="10" stroke-linecap="round"/>
</svg>
